{
	"asset":{
		"generator":"Khronos glTF Blender I/O v4.2.57",
		"version":"2.0"
	},
	"extensionsUsed":[
		"KHR_materials_specular",
		"KHR_materials_ior"
	],
	"scene":0,
	"scenes":[
		{
			"name":"Scene",
			"nodes":[
				4
			]
		}
	],
	"nodes":[
		{
			"mesh":0,
			"name":"Ellipse 2.001",
			"rotation":[
				0,
				0,
				0.9063078761100769,
				0.4226182997226715
			],
			"scale":[
				0.5242675542831421,
				0.5242675542831421,
				0.5242674350738525
			],
			"translation":[
				-201.29873657226562,
				4.074061393737793,
				26.702917098999023
			]
		},
		{
			"mesh":1,
			"name":"Ellipse 3.001",
			"scale":[
				0.3117816150188446,
				0.3117816150188446,
				0.3117816150188446
			],
			"translation":[
				-201.2987518310547,
				4.196507930755615,
				26.702917098999023
			]
		},
		{
			"mesh":2,
			"name":"Ellipse.001",
			"scale":[
				0.5292918682098389,
				0.5292918682098389,
				0.5292918682098389
			],
			"translation":[
				-201.2987518310547,
				4.196507930755615,
				9.190412521362305
			]
		},
		{
			"children":[
				0,
				1,
				2
			],
			"name":"Scene 1"
		},
		{
			"children":[
				3
			],
			"name":"Node_0",
			"scale":[
				0.009999999776482582,
				0.009999999776482582,
				0.009999999776482582
			],
			"translation":[
				1.901558756828308,
				0,
				0
			]
		}
	],
	"materials":[
		{
			"doubleSided":true,
			"name":"green",
			"pbrMetallicRoughness":{
				"baseColorFactor":[
					0.018499359488487244,
					0.6724440455436707,
					0.30054399371147156,
					1
				],
				"metallicFactor":0.787401556968689,
				"roughnessFactor":0.3897637724876404
			}
		},
		{
			"doubleSided":true,
			"extensions":{
				"KHR_materials_specular":{
					"specularColorFactor":[
						0.9743425846099854,
						1.0,
						1.0
					]
				},
				"KHR_materials_ior":{
					"ior":1
				}
			},
			"name":"Material.002",
			"pbrMetallicRoughness":{
				"metallicFactor":0.6850393414497375,
				"roughnessFactor":0.27165353298187256
			}
		}
	],
	"meshes":[
		{
			"name":"Mesh_1.001",
			"primitives":[
				{
					"attributes":{
						"POSITION":0,
						"NORMAL":1,
						"TEXCOORD_0":2
					},
					"indices":3,
					"material":0
				}
			]
		},
		{
			"name":"Mesh_0.001",
			"primitives":[
				{
					"attributes":{
						"POSITION":4,
						"NORMAL":5,
						"TEXCOORD_0":6
					},
					"indices":7,
					"material":0
				}
			]
		},
		{
			"name":"Mesh_2.001",
			"primitives":[
				{
					"attributes":{
						"POSITION":8,
						"NORMAL":9,
						"TEXCOORD_0":10
					},
					"indices":11,
					"material":1
				}
			]
		}
	],
	"accessors":[
		{
			"bufferView":0,
			"componentType":5126,
			"count":1358,
			"max":[
				231.96945190429688,
				232,
				20
			],
			"min":[
				-231.8627471923828,
				-231.98475646972656,
				0
			],
			"type":"VEC3"
		},
		{
			"bufferView":1,
			"componentType":5126,
			"count":1358,
			"type":"VEC3"
		},
		{
			"bufferView":2,
			"componentType":5126,
			"count":1358,
			"type":"VEC2"
		},
		{
			"bufferView":3,
			"componentType":5123,
			"count":6228,
			"type":"SCALAR"
		},
		{
			"bufferView":4,
			"componentType":5126,
			"count":656,
			"max":[
				125.5,
				125.5,
				20
			],
			"min":[
				-125.5,
				-125.5,
				0
			],
			"type":"VEC3"
		},
		{
			"bufferView":5,
			"componentType":5126,
			"count":656,
			"type":"VEC3"
		},
		{
			"bufferView":6,
			"componentType":5126,
			"count":656,
			"type":"VEC2"
		},
		{
			"bufferView":7,
			"componentType":5123,
			"count":3060,
			"type":"SCALAR"
		},
		{
			"bufferView":8,
			"componentType":5126,
			"count":656,
			"max":[
				312.5,
				312.5,
				35
			],
			"min":[
				-312.5,
				-312.5,
				0
			],
			"type":"VEC3"
		},
		{
			"bufferView":9,
			"componentType":5126,
			"count":656,
			"type":"VEC3"
		},
		{
			"bufferView":10,
			"componentType":5126,
			"count":656,
			"type":"VEC2"
		},
		{
			"bufferView":11,
			"componentType":5123,
			"count":3060,
			"type":"SCALAR"
		}
	],
	"bufferViews":[
		{
			"buffer":0,
			"byteLength":16296,
			"byteOffset":0,
			"target":34962
		},
		{
			"buffer":0,
			"byteLength":16296,
			"byteOffset":16296,
			"target":34962
		},
		{
			"buffer":0,
			"byteLength":10864,
			"byteOffset":32592,
			"target":34962
		},
		{
			"buffer":0,
			"byteLength":12456,
			"byteOffset":43456,
			"target":34963
		},
		{
			"buffer":0,
			"byteLength":7872,
			"byteOffset":55912,
			"target":34962
		},
		{
			"buffer":0,
			"byteLength":7872,
			"byteOffset":63784,
			"target":34962
		},
		{
			"buffer":0,
			"byteLength":5248,
			"byteOffset":71656,
			"target":34962
		},
		{
			"buffer":0,
			"byteLength":6120,
			"byteOffset":76904,
			"target":34963
		},
		{
			"buffer":0,
			"byteLength":7872,
			"byteOffset":83024,
			"target":34962
		},
		{
			"buffer":0,
			"byteLength":7872,
			"byteOffset":90896,
			"target":34962
		},
		{
			"buffer":0,
			"byteLength":5248,
			"byteOffset":98768,
			"target":34962
		},
		{
			"buffer":0,
			"byteLength":6120,
			"byteOffset":104016,
			"target":34963
		}
	],
	"buffers":[
		{
			"byteLength":110136,
			"uri":"logovar2.bin"
		}
	]
}
