<svg width="51" height="51" viewBox="0 0 51 51" fill="none" xmlns="http://www.w3.org/2000/svg">
<g clip-path="url(#clip0_30_224)">
<rect width="51" height="51" rx="25.5" fill="#25D695"/>
<path d="M25.4999 21.42C24.693 21.42 23.9042 21.6593 23.2332 22.1076C22.5622 22.5559 22.0393 23.1931 21.7305 23.9387C21.4217 24.6842 21.3409 25.5045 21.4983 26.296C21.6557 27.0874 22.0443 27.8144 22.6149 28.385C23.1855 28.9556 23.9125 29.3442 24.704 29.5016C25.4954 29.659 26.3158 29.5782 27.0613 29.2694C27.8068 28.9606 28.444 28.4377 28.8923 27.7667C29.3406 27.0958 29.5799 26.307 29.5799 25.5C29.5799 24.4179 29.1501 23.3802 28.3849 22.615C27.6198 21.8499 26.582 21.42 25.4999 21.42Z" fill="white"/>
<path d="M25.5 9.18001C23.3564 9.17737 21.2334 9.59826 19.253 10.4185C17.2726 11.2388 15.4737 12.4422 13.9597 13.9597L19.7329 19.7329C20.8738 18.5909 22.3278 17.8129 23.9109 17.4974C25.494 17.1819 27.1351 17.343 28.6266 17.9604C30.1182 18.5777 31.3931 19.6236 32.2901 20.9657C33.1871 22.3078 33.6658 23.8858 33.6658 25.5C33.6658 27.1143 33.1871 28.6922 32.2901 30.0343C31.3931 31.3764 30.1182 32.4223 28.6266 33.0397C27.1351 33.657 25.494 33.8181 23.9109 33.5026C22.3278 33.1871 20.8738 32.4091 19.7329 31.2671L13.9597 37.0403C15.8575 38.938 18.194 40.3383 20.7622 41.1174C23.3305 41.8964 26.0512 42.03 28.6835 41.5064C31.3157 40.9828 33.7782 39.8181 35.8528 38.1155C37.9274 36.4129 39.55 34.225 40.5771 31.7455C41.6042 29.266 42.0039 26.5715 41.7409 23.9006C41.4778 21.2297 40.5602 18.6649 39.0692 16.4334C37.5782 14.2019 35.5599 12.3725 33.193 11.1073C30.8262 9.84207 28.1838 9.1801 25.5 9.18001V9.18001Z" fill="white"/>
</g>
<defs>
<clipPath id="clip0_30_224">
<rect width="51" height="51" fill="white"/>
</clipPath>
</defs>
</svg>
